<svg xmlns="http://www.w3.org/2000/svg" viewBox="30.0 -40.0 540.0 740.0" width="540" height="740" font-family="sans-serif">
<rect x="30.0" y="-40.0" width="540.0" height="740.0" fill="#ffffff"/>
<defs><marker id="arrow-blue" viewBox="0 0 10 10" refX="9" refY="5" markerWidth="7" markerHeight="7" orient="auto-start-reverse"><path d="M0,0 L10,5 L0,10 z" fill="#6c8ebf"/></marker><marker id="arrow-green" viewBox="0 0 10 10" refX="9" refY="5" markerWidth="7" markerHeight="7" orient="auto-start-reverse"><path d="M0,0 L10,5 L0,10 z" fill="#82b366"/></marker></defs>
<path d="M 240.0,120.0 L 300.0,80.0" fill="none" stroke="#999999" stroke-width="1.0" stroke-linecap="round" stroke-linejoin="round"/>
<path d="M 300.0,120.0 L 300.0,80.0" fill="none" stroke="#999999" stroke-width="1.0" stroke-linecap="round" stroke-linejoin="round"/>
<path d="M 360.0,120.0 L 300.0,80.0" fill="none" stroke="#999999" stroke-width="1.0" stroke-linecap="round" stroke-linejoin="round"/>
<path d="M 259.5,320.0 L 259.5,280.0" fill="none" stroke="#999999" stroke-width="1.0" stroke-linecap="round" stroke-linejoin="round"/>
<path d="M 340.0,320.0 L 340.0,280.0" fill="none" stroke="#999999" stroke-width="1.0" stroke-linecap="round" stroke-linejoin="round"/>
<path d="M 139.5,320.0 L 139.5,280.0" fill="none" stroke="#999999" stroke-width="1.0" stroke-linecap="round" stroke-linejoin="round"/>
<path d="M 459.5,320.0 L 459.5,280.0" fill="none" stroke="#999999" stroke-width="1.0" stroke-linecap="round" stroke-linejoin="round"/>
<path d="M 139.5,440.0 L 139.5,400.0" fill="none" stroke="#999999" stroke-width="1.0" stroke-linecap="round" stroke-linejoin="round"/>
<path d="M 259.5,440.0 L 259.5,400.0" fill="none" stroke="#999999" stroke-width="1.0" stroke-linecap="round" stroke-linejoin="round"/>
<path d="M 339.5,440.0 L 339.5,400.0" fill="none" stroke="#999999" stroke-width="1.0" stroke-linecap="round" stroke-linejoin="round"/>
<path d="M 459.5,440.0 L 459.5,400.0" fill="none" stroke="#999999" stroke-width="1.0" stroke-linecap="round" stroke-linejoin="round"/>
<path d="M 199.5,520.0 L 199.5,480.0" fill="none" stroke="#999999" stroke-width="1.0" stroke-linecap="round" stroke-linejoin="round"/>
<path d="M 399.5,520.0 L 399.5,480.0" fill="none" stroke="#999999" stroke-width="1.0" stroke-linecap="round" stroke-linejoin="round"/>
<rect x="80.0" y="0.0" width="40.0" height="40.0" fill="#ffffff" stroke="#999999" stroke-width="1.0"/>
<rect x="80.0" y="200.0" width="40.0" height="40.0" fill="#ffffff" stroke="#999999" stroke-width="1.0"/>
<rect x="120.0" y="240.0" width="40.0" height="40.0" fill="#ffffff" stroke="#999999" stroke-width="1.0"/>
<rect x="160.0" y="200.0" width="40.0" height="40.0" fill="#ffffff" stroke="#999999" stroke-width="1.0"/>
<rect x="240.0" y="240.0" width="40.0" height="40.0" fill="#ffffff" stroke="#999999" stroke-width="1.0"/>
<rect x="320.0" y="240.0" width="40.0" height="40.0" fill="#ffffff" stroke="#999999" stroke-width="1.0"/>
<rect x="280.0" y="160.0" width="40.0" height="40.0" fill="#ffffff" stroke="#999999" stroke-width="1.0"/>
<rect x="260.0" y="40.0" width="80.0" height="40.0" fill="#ffffff" stroke="#999999" stroke-width="1.0"/>
<text x="300.0" y="63.5" font-size="12" text-anchor="middle" fill="#222222">大丸</text>
<rect x="210.9" y="128.3" width="38.199999999999996" height="13.200000000000001" fill="#ffffff"/>
<text x="230.0" y="138.5" font-size="12" text-anchor="middle" fill="#222222">ユウタ</text>
<rect x="280.9" y="128.3" width="38.199999999999996" height="13.200000000000001" fill="#ffffff"/>
<text x="300.0" y="138.5" font-size="12" text-anchor="middle" fill="#222222">ダイム</text>
<rect x="350.9" y="128.3" width="38.199999999999996" height="13.200000000000001" fill="#ffffff"/>
<text x="370.0" y="138.5" font-size="12" text-anchor="middle" fill="#222222">ソウシ</text>
<rect x="75.2" y="48.3" width="49.599999999999994" height="13.200000000000001" fill="#ffffff"/>
<text x="100.0" y="58.5" font-size="12" text-anchor="middle" fill="#222222">コウさん</text>
<rect x="480.0" y="0.0" width="40.0" height="40.0" fill="#ffffff" stroke="#999999" stroke-width="1.0"/>
<rect x="480.9" y="48.3" width="38.199999999999996" height="13.200000000000001" fill="#ffffff"/>
<text x="500.0" y="58.5" font-size="12" text-anchor="middle" fill="#222222">ユウシ</text>
<rect x="275.2" y="208.3" width="49.599999999999994" height="13.200000000000001" fill="#ffffff"/>
<text x="300.0" y="218.5" font-size="12" text-anchor="middle" fill="#222222">ユウスケ</text>
<rect x="400.0" y="200.0" width="40.0" height="40.0" fill="#ffffff" stroke="#999999" stroke-width="1.0"/>
<rect x="440.0" y="240.0" width="40.0" height="40.0" fill="#ffffff" stroke="#999999" stroke-width="1.0"/>
<rect x="480.0" y="200.0" width="40.0" height="40.0" fill="#ffffff" stroke="#999999" stroke-width="1.0"/>
<rect x="115.2" y="328.3" width="49.599999999999994" height="13.200000000000001" fill="#ffffff"/>
<text x="140.0" y="338.5" font-size="12" text-anchor="middle" fill="#222222">ショウタ</text>
<rect x="235.2" y="328.3" width="49.599999999999994" height="13.200000000000001" fill="#ffffff"/>
<text x="260.0" y="338.5" font-size="12" text-anchor="middle" fill="#222222">カンナ父</text>
<rect x="315.2" y="328.3" width="49.599999999999994" height="13.200000000000001" fill="#ffffff"/>
<text x="340.0" y="338.5" font-size="12" text-anchor="middle" fill="#222222">アカネ父</text>
<rect x="440.9" y="328.3" width="38.199999999999996" height="13.200000000000001" fill="#ffffff"/>
<text x="460.0" y="338.5" font-size="12" text-anchor="middle" fill="#222222">ナオヤ</text>
<rect x="120.0" y="360.0" width="40.0" height="40.0" fill="#ffffff" stroke="#999999" stroke-width="1.0"/>
<rect x="115.2" y="448.3" width="49.599999999999994" height="13.200000000000001" fill="#ffffff"/>
<text x="140.0" y="458.5" font-size="12" text-anchor="middle" fill="#222222">コンさん</text>
<rect x="240.0" y="360.0" width="40.0" height="40.0" fill="#ffffff" stroke="#999999" stroke-width="1.0"/>
<rect x="240.9" y="448.3" width="38.199999999999996" height="13.200000000000001" fill="#ffffff"/>
<text x="260.0" y="458.5" font-size="12" text-anchor="middle" fill="#222222">テツオ</text>
<rect x="320.0" y="360.0" width="40.0" height="40.0" fill="#ffffff" stroke="#999999" stroke-width="1.0"/>
<rect x="315.2" y="448.3" width="49.599999999999994" height="13.200000000000001" fill="#ffffff"/>
<text x="340.0" y="458.5" font-size="12" text-anchor="middle" fill="#222222">ユウマル</text>
<rect x="440.0" y="360.0" width="40.0" height="40.0" fill="#ffffff" stroke="#999999" stroke-width="1.0"/>
<rect x="435.2" y="441.3" width="49.599999999999994" height="13.200000000000001" fill="#ffffff"/>
<text x="460.0" y="451.5" font-size="12" text-anchor="middle" fill="#222222">コンさん</text>
<rect x="435.2" y="455.3" width="49.599999999999994" height="13.200000000000001" fill="#ffffff"/>
<text x="460.0" y="465.5" font-size="12" text-anchor="middle" fill="#222222">（社員）</text>
<rect x="180.0" y="440.0" width="40.0" height="40.0" fill="#ffffff" stroke="#999999" stroke-width="1.0"/>
<rect x="175.2" y="528.3" width="49.599999999999994" height="13.200000000000001" fill="#ffffff"/>
<text x="200.0" y="538.5" font-size="12" text-anchor="middle" fill="#222222">エミリ父</text>
<rect x="380.0" y="440.0" width="40.0" height="40.0" fill="#ffffff" stroke="#999999" stroke-width="1.0"/>
<rect x="380.9" y="528.3" width="38.199999999999996" height="13.200000000000001" fill="#ffffff"/>
<text x="400.0" y="538.5" font-size="12" text-anchor="middle" fill="#222222">タカシ</text>
<rect x="180.0" y="560.0" width="40.0" height="40.0" fill="#ffffff" stroke="#999999" stroke-width="1.0"/>
<rect x="280.0" y="560.0" width="40.0" height="80.0" fill="#ffffff" stroke="#999999" stroke-width="1.0"/>
<text x="300.0" y="603.5" font-size="12" text-anchor="middle" fill="#222222">馬</text>
<rect x="186.6" y="608.3" width="26.799999999999997" height="13.200000000000001" fill="#ffffff"/>
<text x="200.0" y="618.5" font-size="12" text-anchor="middle" fill="#222222">オカ</text>
<rect x="230.9" y="638.3" width="38.199999999999996" height="13.200000000000001" fill="#ffffff"/>
<text x="250.0" y="648.5" font-size="12" text-anchor="middle" fill="#222222">クリス</text>
<rect x="380.0" y="560.0" width="40.0" height="40.0" fill="#ffffff" stroke="#999999" stroke-width="1.0"/>
<rect x="375.2" y="608.3" width="49.599999999999994" height="13.200000000000001" fill="#ffffff"/>
<text x="400.0" y="618.5" font-size="12" text-anchor="middle" fill="#222222">ヤスナリ</text>
<rect x="330.9" y="638.3" width="38.199999999999996" height="13.200000000000001" fill="#ffffff"/>
<text x="350.0" y="648.5" font-size="12" text-anchor="middle" fill="#222222">シンゴ</text>
</svg>